<?xml version="1.0" standalone="no"?>
<!DOCTYPE svg PUBLIC "-//W3C//DTD SVG 20010904//EN"
 "http://www.w3.org/TR/2001/REC-SVG-20010904/DTD/svg10.dtd">
<svg version="1.0" xmlns="http://www.w3.org/2000/svg"
 width="700.000000pt" height="700.000000pt" viewBox="0 0 700.000000 700.000000"
 preserveAspectRatio="xMidYMid meet">
<metadata>
Created by potrace 1.14, written by Peter Selinger 2001-2017
</metadata>
<g transform="translate(0.000000,700.000000) scale(0.100000,-0.100000)"
fill="#000000" stroke="none">
<path d="M3107 5834 c-1 -1 -27 -4 -57 -7 -178 -19 -356 -104 -482 -229 -83
-83 -188 -262 -203 -347 -3 -19 -8 -37 -10 -41 -8 -13 -16 -76 -20 -158 -2
-46 -6 -86 -9 -89 -2 -3 -112 -6 -243 -8 -205 -2 -248 -5 -313 -23 -191 -52
-360 -170 -457 -317 -14 -22 -34 -51 -43 -65 -27 -40 -70 -157 -87 -234 -13
-62 -15 -223 -16 -1231 0 -638 3 -1184 7 -1214 9 -76 14 -96 44 -176 57 -156
144 -272 279 -371 116 -87 251 -138 398 -152 99 -9 3157 -7 3240 2 74 8 201
49 275 89 207 110 358 315 406 550 16 74 17 194 17 1257 0 1300 2 1242 -65
1398 -100 230 -284 391 -530 463 -72 21 -118 23 -553 29 -18 0 -20 7 -21 68
-1 169 -46 316 -138 455 -78 118 -225 236 -359 290 -134 54 -194 59 -644 61
-228 0 -415 0 -416 0z m858 -452 c51 -15 132 -65 168 -105 63 -71 97 -162 97
-261 0 -51 -2 -56 -22 -57 -25 -1 -1418 0 -1431 0 -5 1 -7 31 -6 69 5 177 118
319 283 357 67 15 856 13 911 -3z m1160 -876 c71 -18 107 -39 159 -90 48 -47
88 -117 102 -176 7 -33 14 -853 7 -875 -2 -7 -123 -11 -364 -10 l-361 0 -2
135 c-2 100 -7 144 -19 170 -65 140 -243 174 -351 67 -55 -55 -66 -98 -66
-249 l0 -124 -730 0 -730 0 0 124 c0 151 -11 194 -66 249 -85 85 -218 84 -308
-2 -48 -47 -59 -87 -62 -225 -1 -69 -3 -130 -3 -135 -1 -15 -719 -15 -724 -1
-7 22 0 842 7 876 27 116 120 218 239 260 50 18 112 19 1637 19 1291 1 1594
-2 1635 -13z m-2794 -1601 c7 -118 9 -129 36 -173 79 -128 251 -142 351 -28
36 41 52 91 52 161 l0 51 730 0 730 0 0 -61 c0 -77 25 -130 80 -178 39 -33 60
-42 125 -51 68 -10 160 41 200 109 25 41 28 60 34 166 1 13 42 15 363 15 l363
-1 0 -490 c1 -526 -2 -557 -51 -641 -34 -60 -116 -129 -182 -155 l-57 -23
-1605 0 -1605 0 -60 24 c-83 32 -173 123 -205 205 -23 60 -23 62 -25 565 -1
278 -1 507 1 511 5 10 724 5 725 -6z"/>
</g>
</svg>
